<?xml version="1.0" encoding="UTF-8"?>
<svg id="Layer_1" xmlns="http://www.w3.org/2000/svg" version="1.1" viewBox="0 0 43.79 65.12">
  <!-- Generator: Adobe Illustrator 30.1.0, SVG Export Plug-In . SVG Version: 2.1.1 Build 136)  -->
  <defs>
    <style>
      .st0 {
        fill: #ffff78;
      }
    </style>
  </defs>
  <path class="st0" d="M42.15,1.63L37.47.06c-.66-.22-1.36.14-1.58.79-.22.66.13,1.36.79,1.58l3.3,1.1C-4.77,20.49.13,63.6.18,64.03c.09.68.71,1.17,1.4,1.08.68-.09,1.17-.71,1.08-1.4-.02-.1-1.25-10.59,2.87-22.91C10.99,24.51,22.79,12.8,40.59,5.99l-.82,2.43c-.22.66.13,1.36.79,1.58.55.18,1.13-.04,1.44-.5.06-.09.11-.19.14-.29l1.52-4.54c.42-1.25-.26-2.62-1.52-3.04h0Z"/>
</svg>