<?xml version="1.0" encoding="UTF-8"?>
<svg id="Layer_1" xmlns="http://www.w3.org/2000/svg" version="1.1" viewBox="0 0 31.22 31.22">
  <!-- Generator: Adobe Illustrator 30.1.0, SVG Export Plug-In . SVG Version: 2.1.1 Build 136)  -->
  <defs>
    <style>
      .st0 {
        fill: #ffff78;
      }
    </style>
  </defs>
  <path class="st0" d="M15.61,0C7,0,0,7,0,15.61s7,15.61,15.61,15.61,15.61-7,15.61-15.61S24.22,0,15.61,0ZM15.61,28.22c-6.95,0-12.61-5.66-12.61-12.61S8.66,3,15.61,3s12.61,5.66,12.61,12.61-5.66,12.61-12.61,12.61Z"/>
  <path class="st0" d="M20.58,9.97l-8.1,8.1-2.84-2.84c-.58-.59-1.54-.59-2.12,0-.59.58-.59,1.53,0,2.12l3.71,3.71s.08.05.11.08c.03.04.04.08.08.11.29.29.68.44,1.06.44s.77-.15,1.06-.44l9.16-9.16c.59-.58.59-1.53,0-2.12-.58-.59-1.53-.59-2.12,0Z"/>
</svg>