<?xml version="1.0" encoding="UTF-8"?>
<svg id="Layer_1" xmlns="http://www.w3.org/2000/svg" version="1.1" viewBox="0 0 31.22 21.34">
  <!-- Generator: Adobe Illustrator 30.1.0, SVG Export Plug-In . SVG Version: 2.1.1 Build 136)  -->
  <defs>
    <style>
      .st0 {
        fill: #ff7b7b;
        fill-rule: evenodd;
      }
    </style>
  </defs>
  <path class="st0" d="M11.79,0C6.87,0,2.86,4.01,2.86,8.93c0,0,0,0,0,0,0,.74.13,1.46.31,2.17C1.3,11.94,0,13.82,0,15.99,0,18.94,2.4,21.34,5.36,21.34h20.51c2.95,0,5.35-2.4,5.35-5.36,0-2.52-1.76-4.64-4.11-5.21.04-.26.07-.53.07-.79h0c0-3.2-2.61-5.81-5.81-5.81h0c-.63,0-1.24.14-1.83.34C17.95,1.75,15.02,0,11.79,0h0ZM11.79,1.84c2.8,0,5.33,1.64,6.48,4.2.21.46.75.67,1.21.46.02,0,.03-.02.05-.02.57-.3,1.2-.45,1.84-.45,2.2,0,3.97,1.77,3.97,3.97,0,.43-.07.86-.21,1.27-.16.48.09,1,.57,1.16.09.03.18.05.27.05,1.91.06,3.41,1.59,3.41,3.52s-1.55,3.52-3.52,3.52H5.36c-1.97,0-3.52-1.55-3.52-3.52,0-1.66,1.13-3.03,2.65-3.41.49-.12.79-.62.67-1.11,0-.03-.02-.06-.03-.09-.29-.78-.43-1.6-.44-2.43h0c0-3.93,3.17-7.1,7.1-7.1Z"/>
</svg>