<?xml version="1.0" encoding="UTF-8"?>
<svg id="Layer_1" xmlns="http://www.w3.org/2000/svg" version="1.1" viewBox="0 0 24 24">
  <!-- Generator: Adobe Illustrator 30.1.0, SVG Export Plug-In . SVG Version: 2.1.1 Build 136)  -->
  <defs>
    <style>
      .st0 {
        fill: #ffff78;
      }
    </style>
  </defs>
  <path class="st0" d="M22.25,8.24c-1.02-1-2.39-1.55-3.84-1.55s-2.82.55-3.84,1.55l-1.59,1.53c-.08.08-.08.21,0,.29l.99.97c.08.08.2.08.29,0l1.58-1.54c.69-.67,1.6-1.04,2.57-1.04s1.88.37,2.57,1.04c.68.67,1.06,1.56,1.06,2.5s-.38,1.83-1.06,2.48c-.69.67-1.6,1.04-2.57,1.04s-1.88-.37-2.57-1.04l-6.41-6.24c-1.03-1-2.39-1.55-3.84-1.55s-2.82.55-3.84,1.55c-1.03,1-1.59,2.33-1.59,3.75s.57,2.75,1.59,3.75c1.02,1,2.39,1.55,3.84,1.55s2.82-.55,3.84-1.55l1.58-1.53c.08-.08.08-.21,0-.29l-.99-.96c-.08-.08-.2-.08-.29,0l-1.58,1.53c-.69.67-1.6,1.04-2.57,1.04s-1.88-.37-2.57-1.04c-.68-.67-1.06-1.56-1.06-2.5s.38-1.82,1.06-2.48c.69-.67,1.6-1.04,2.57-1.04s1.88.37,2.57,1.04l6.4,6.25c1.03,1,2.39,1.55,3.84,1.55s2.82-.55,3.84-1.55c1.03-1,1.6-2.33,1.6-3.75.01-1.42-.56-2.76-1.58-3.76h0Z"/>
</svg>