<?xml version="1.0" encoding="UTF-8"?>
<svg id="Layer_1" xmlns="http://www.w3.org/2000/svg" version="1.1" viewBox="0 0 653.64 203.22">
  <!-- Generator: Adobe Illustrator 30.1.0, SVG Export Plug-In . SVG Version: 2.1.1 Build 136)  -->
  <defs>
    <style>
      .st0 {
        fill: #2f2f2f;
      }

      .st1 {
        fill: #7a7a7a;
      }

      .st2 {
        fill: #5a5a5a;
      }

      .st3 {
        fill: #3a3a3a;
      }

      .st4 {
        fill: #272727;
      }

      .st5 {
        fill: #656565;
      }

      .st6 {
        fill: #464646;
      }

      .st7 {
        fill: #fff;
      }

      .st8 {
        fill: #252525;
      }

      .st9 {
        fill: #6e6e6e;
      }

      .st10 {
        fill: #1a1a1a;
      }

      .st11 {
        fill: #0f0f0f;
      }
    </style>
  </defs>
  <g>
    <path class="st7" d="M622.26,100.9c5.39,18.03,1.62,41.12-15.66,51.68-14.87,9.1-36.41,8.57-49.1-5.56l-.46,10.31-17.79-.04-.03-115.05,17.92-.09.22,43.61c5.76-6.05,11.63-9.69,19.44-11.04,19.79-3.43,39.43,6.04,45.45,26.17h.01ZM581.5,143.34c11.01.1,19.58-6.27,22.99-16.02,2.65-7.59,2.53-15.91-.53-23.32-3.88-9.41-12.74-14.9-22.86-14.64-9.53.24-17.66,5.54-21.38,14.36-3.27,7.75-3.29,16.29-.49,24.2,3.54,9.22,11.64,15.33,22.28,15.43h-.01Z"/>
    <polygon class="st7" points="293.25 116.25 336.25 156.79 313.05 157.32 277.08 124.82 276.63 157.21 258.88 157.09 258.88 42.25 276.69 42.19 276.91 107.83 312.74 75.46 336.42 75.63 293.25 116.25"/>
    <path class="st7" d="M452.72,133.47c.36-8.59,4.39-15.41,11.56-19.21s15.37-6.31,23.63-6.62l18.13-.69c1.05-8.24-3.87-15.94-12.08-17.92-10-2.41-21.78,1.45-23.48,13.67h-17.48c1.37-10.87,8.07-19.79,18.09-24.65,10.81-5.24,23.35-5.27,34.64-.79,10.45,4.14,18.14,14.05,18.19,25.74l.23,54.21-17.56.19-.75-10.31c-10.54,12.9-28.36,14.48-41.43,7.42-7.66-4.14-12.08-11.71-11.68-21.04h0ZM475.02,142.56c7.55,4.27,16.71,2.69,22.94-2s8.98-12.35,7.99-20.16c-10.43.09-32.61-.98-35.16,10.97-.8,3.75.03,8.81,4.23,11.18h0Z"/>
    <path class="st7" d="M337.05,132.47c.72-8.72,5.27-15.26,12.67-18.84,6.78-3.28,14.43-5.66,22.15-5.95l18.44-.7c.91-6.45-2.21-13.56-8.63-16.69-4.07-1.98-9.26-2.24-13.7-1.45-7.37,1.32-11.98,6.34-13.23,13.91l-17.36-.07c1.2-11.94,9.72-21.75,21.3-26.04,10.33-3.82,21.69-3.44,31.93.89s17.53,14.11,17.56,25.46l.17,54.26-17.6.12-.5-10.44c-10.14,12.53-27,14.58-40.19,8.29-8.68-4.13-13.85-12.53-13.02-22.75h.01ZM365.66,144.79c7.5.85,14.21-1.25,19.04-6.42,4.2-4.5,6.61-11.26,5.46-17.94-11.83.06-37.06-1.12-35.25,15.01.56,4.99,4.63,8.65,10.75,9.34h0Z"/>
    <path class="st7" d="M408.78,187.59l.04-14.59c3.73-.14,7.23.13,9.86-1.46s4.28-6.25,4.28-9.56l.07-86.58,17.83.03-.12,89.42c0,7.61-3.85,15.15-9.65,19.14-6.65,4.58-14.25,4.83-22.31,3.6Z"/>
    <rect class="st7" x="635.76" y="75.35" width="17.87" height="82.01"/>
    <circle class="st7" cx="431.95" cy="51.46" r="10.54"/>
    <circle class="st7" cx="644.03" cy="51.46" r="9.84"/>
  </g>
  <g>
    <path class="st7" d="M200,0v200H0V0h200ZM44.49,45.27c-.23,1.2-.49,2.92-.49,4.93v103.08c0,1.05.85,2.18,1.28,2.24,1.07.16,3.23.5,4.66.49l48.06-.07,34.82-.26c7.18-.05,14.41.71,22.81-.04l-54.64-54.54c-.09-.06.35-2.28,1.05-3l17.72-18.27,11.07-11.16,11.02-11.07c4.28-4.29,9.01-7.83,13.61-13.56l-108.45-.08c-.82,0-2.39.68-2.51,1.3h-.01Z"/>
    <g>
      <path class="st6" d="M56.95,56.08c.82,1.17,2.05,2.89,3.05,3.9l-1.28.18c-.34.05-.72,1.42-.72,1.96l-.03,75.73c0,.64.81,2.64.92,2.79l-11.42,12.05c-.78.82-1.69,2.08-2.18,2.84-.43-.06-1.27-1.19-1.27-2.24V50.2c0-2.01.25-3.73.48-4.93,3.28,1.2,9.3,9.82,12.46,10.81h0Z"/>
      <path class="st10" d="M132.82,155.69l-34.82.26c-1.39-1.77-2.91-3.36-4.66-5.18l-3.95-4.09c-2.15-2.23-4.55-5.31-6.73-7.18l-8.3-7.13c-1.04-.89-2.16-3.35-2.34-4.59l10.87-11.05,7.1-6.76c.17,3.5,2.76,5.26,5.29,7.8l10.48,10.51,10.33,9.68,3.82,3.97,4.67,4.41,4.59,4.56c1.4,1.39,2.77,3.25,3.63,4.78h.02Z"/>
      <path class="st1" d="M141.84,57.61l-.19-.95c-.06-.28-1.27-.5-1.82-.51l-23.85-.34c-2.58-.04-6.16-1.03-8.6-.57-2.87.54-4.96.67-7.67-.12l-38.66-.18c-1.07,0-3.47.85-4.09,1.13-3.16-.99-9.18-9.61-12.46-10.81.12-.61,1.69-1.3,2.51-1.3l108.45.08c-4.6,5.73-9.34,9.26-13.61,13.56h0Z"/>
      <path class="st11" d="M100.99,101.1l54.64,54.54c-8.4.76-15.63,0-22.81.04-.86-1.53-2.23-3.39-3.63-4.78l-4.59-4.56-4.67-4.41-3.82-3.97-10.33-9.68-10.48-10.51c-2.53-2.54-5.13-4.3-5.29-7.8l9.77-9.63,1.22.76h-.01Z"/>
      <path class="st9" d="M141.84,57.61l-11.02,11.07c-.4-.64-2.55-1.74-3.68-1.74l-60.1.14-7.04-7.1c-1-1.01-2.23-2.73-3.05-3.9.62-.27,3.02-1.13,4.09-1.13l38.66.18c2.71.78,4.8.66,7.67.12,2.44-.46,6.02.53,8.6.57l23.85.34c.55,0,1.77.22,1.82.51l.19.95h0Z"/>
      <path class="st4" d="M98,155.95l-48.06.07c-1.44,0-3.59-.33-4.66-.49.49-.76,1.4-2.02,2.18-2.84l11.42-12.05,7.63-7.11c1.91-1.78,3.43-3.81,4.58-5.64l.93-.1c.18,1.25,1.3,3.7,2.34,4.59l8.3,7.13c2.18,1.87,4.57,4.94,6.73,7.18l3.95,4.09c1.75,1.81,3.27,3.41,4.66,5.18h0Z"/>
      <path class="st5" d="M130.82,68.68l-11.07,11.16c-.48-.5-2.81-1.83-3.92-1.83l-26.7-.05c-3.64,0-6.83.19-9.79.66-2.09-1.79-4.36-3.65-6.36-5.63l-5.94-5.91,60.1-.14c1.13,0,3.27,1.1,3.68,1.74h0Z"/>
      <path class="st2" d="M119.75,79.83l-17.72,18.27c-.69.72-1.14,2.94-1.05,3l-1.22-.76c-4.8-5.62-11.27-10.47-15.93-16.19l-4.5-5.53c2.96-.47,6.15-.67,9.79-.66l26.7.05c1.1,0,3.43,1.33,3.92,1.83h.01Z"/>
      <path class="st3" d="M60,59.98l7.04,7.1,5.94,5.91-1.26.21c-.34.06-.65,1.39-.65,1.76l.02,52.93c-1.15,1.83-2.68,3.86-4.58,5.64l-7.63,7.11c-.11-.15-.92-2.15-.92-2.79l.03-75.73c0-.54.38-1.91.72-1.96l1.28-.18h.01Z"/>
      <path class="st0" d="M72.99,72.98c1.99,1.98,4.27,3.84,6.36,5.63l4.5,5.53c-.63.43-1.91,2.66-1.9,3.92l.19,25.81c0,.69.63,2.59.77,2.85l-10.87,11.05-.93.1-.02-52.93c0-.37.31-1.7.65-1.76l1.26-.21h-.01Z"/>
      <path class="st8" d="M99.77,100.34l-9.77,9.63-7.1,6.76c-.14-.26-.76-2.16-.77-2.85l-.19-25.81c0-1.27,1.27-3.49,1.9-3.92,4.66,5.72,11.13,10.57,15.93,16.19Z"/>
    </g>
  </g>
</svg>