<?xml version="1.0" encoding="UTF-8"?>
<svg id="Layer_1" xmlns="http://www.w3.org/2000/svg" version="1.1" viewBox="0 0 12 12">
  <!-- Generator: Adobe Illustrator 30.1.0, SVG Export Plug-In . SVG Version: 2.1.1 Build 136)  -->
  <defs>
    <style>
      .st0 {
        fill: #fff;
        fill-rule: evenodd;
      }
    </style>
  </defs>
  <path class="st0" d="M3.95.55c.11.04.21.11.29.2.15.15.27.37.37.63.1.26.16.55.18.84.31-.18.66-.29,1.02-.32h.03c.43-.04.87.04,1.24.24.05.03.1.06.15.09.03-.28.09-.57.18-.82.09-.26.22-.48.37-.63.08-.09.18-.16.29-.2.13-.05.27-.06.4-.02.2.06.37.18.51.37.12.17.22.38.28.64.11.47.14,1.08.06,1.82l.03.02h.01c.38.3.64.71.78,1.18.22.74.11,1.58-.27,2.04h0s0,.01,0,.01c.21.38.34.78.36,1.2h0c.03.55-.1,1.08-.41,1.61h0s0,.02,0,.02c.24.58.31,1.16.22,1.74v.02c-.03.18-.2.3-.38.27-.18-.03-.3-.19-.27-.37,0,0,0,0,0,0,.08-.52,0-1.03-.24-1.56-.05-.1-.04-.22.02-.31h0c.3-.47.43-.92.4-1.36-.02-.39-.16-.77-.4-1.14-.1-.15-.06-.34.09-.44h0c.12-.08.23-.29.29-.56.06-.33.05-.67-.05-.99-.1-.35-.29-.64-.55-.84-.3-.23-.69-.34-1.19-.31-.13,0-.26-.06-.32-.19-.16-.33-.39-.57-.67-.72-.27-.14-.58-.19-.89-.17-.62.05-1.17.4-1.34.84-.05.13-.17.21-.3.21-.53,0-.95.13-1.25.35-.26.19-.44.47-.53.79-.09.31-.1.63-.03.94.06.28.17.51.29.63h0c.11.11.13.27.05.4-.18.31-.31.77-.34,1.22-.03.51.09.95.36,1.27h0c.08.11.1.24.05.35-.29.62-.38,1.13-.28,1.53.04.18-.08.35-.25.39-.17.04-.34-.07-.38-.24-.12-.51-.04-1.09.24-1.75v-.02s0,0,0,0c-.14-.2-.24-.42-.3-.65h0c-.08-.3-.11-.6-.09-.9.02-.45.14-.92.31-1.3h0s0-.01,0-.01c-.15-.21-.25-.48-.32-.77h0c-.08-.42-.07-.85.05-1.26.13-.46.39-.85.77-1.13.03-.02.06-.05.09-.07-.08-.75-.06-1.37.06-1.84.06-.26.16-.48.28-.64.13-.18.31-.31.51-.37.13-.04.27-.03.4.02h0ZM6.01,5.09c.47,0,.9.16,1.22.43.32.26.5.62.5.97,0,.44-.2.79-.57,1.01-.31.19-.73.28-1.2.28-.5,0-.94-.13-1.25-.37-.31-.24-.48-.57-.48-.92s.2-.71.53-.97c.33-.27.78-.42,1.24-.42ZM6.01,5.54c-.35,0-.68.11-.96.32-.23.18-.36.42-.36.62s.11.41.3.57c.23.17.56.27.97.27s.74-.07.97-.21c.23-.14.35-.34.35-.63,0-.21-.12-.45-.34-.63-.24-.2-.57-.32-.93-.32ZM6.34,6.14h0c.06.08.05.19-.03.25l-.15.11v.22c0,.1-.08.19-.19.19-.1,0-.19-.08-.19-.19v-.23l-.14-.11c-.07-.06-.09-.17-.03-.24,0,0,0,0,0,0,.06-.07.17-.09.25-.03l.11.09.11-.09c.08-.06.18-.05.24.03ZM3.82,5.18c.24,0,.43.2.43.44,0,.24-.19.43-.43.44-.24,0-.43-.2-.43-.43,0-.24.19-.44.43-.44h0ZM8.17,5.18c.24,0,.43.2.43.44,0,.24-.19.43-.43.44-.24,0-.43-.2-.43-.43,0-.24.19-.44.43-.44ZM3.72,1.15h0c-.06.03-.11.07-.14.12h0c-.07.1-.13.24-.17.42-.09.35-.11.82-.06,1.39.21-.06.45-.1.7-.12h0s0-.02,0-.02c.02-.04.05-.08.07-.12.06-.39.01-.85-.13-1.22-.07-.18-.15-.32-.23-.41-.02-.02-.03-.03-.05-.04h0ZM8.31,1.17h0s-.04.03-.05.05c-.08.08-.16.23-.23.41-.14.4-.19.89-.11,1.29l.03.05h0s.01,0,.01,0c.25,0,.5.04.73.11.04-.56.02-1.02-.06-1.36-.05-.18-.1-.32-.17-.42h0c-.04-.06-.08-.1-.14-.12h0Z"/>
</svg>