<?xml version="1.0" encoding="UTF-8"?>
<svg id="Layer_1" xmlns="http://www.w3.org/2000/svg" version="1.1" viewBox="0 0 134 31.06">
  <!-- Generator: Adobe Illustrator 30.1.0, SVG Export Plug-In . SVG Version: 2.1.1 Build 136)  -->
  <defs>
    <style>
      .st0 {
        fill: #fff;
      }
    </style>
  </defs>
  <path class="st0" d="M36.2,23.8v-7.86c0-5.22,3.72-7.73,8.14-7.73h2.13v4.04l-1.88.02c-1.24,0-2.2.36-2.9,1.07-.69.7-1.03,1.78-1.03,3.22v7.25h-4.46ZM48.37,8.2h4.5v8.16c0,.74.07,1.37.21,1.88.15.5.36.9.63,1.22.28.3.62.51,1.01.65.4.13.84.19,1.34.19.45,0,.9-.06,1.33-.2.4-.13.73-.34,1-.64.28-.31.5-.72.64-1.22s.22-1.13.22-1.88v-8.15h4.5v8.3c.03,1.24-.17,2.47-.59,3.63-.34.91-.89,1.73-1.6,2.4-.71.62-1.54,1.08-2.45,1.34-.93.28-1.95.42-3.05.42s-2.13-.14-3.06-.42c-.9-.26-1.74-.72-2.44-1.34-.72-.66-1.27-1.49-1.61-2.4-.39-1-.58-2.2-.58-3.63v-8.31ZM75.94,15.42v8.4h4.52v-8.4c.06-2,1-3.7,3.05-3.7,1.93,0,2.67,2.1,2.67,3.8v8.3h4.5v-7.89c0-4.88-2.45-8.23-7.03-8.23-2.53,0-4.27.91-5.45,2.14-1.43-1.45-3.41-2.23-5.45-2.14-4.59,0-7.03,3.35-7.03,8.23v7.87h4.5v-8.3c0-1.7.74-3.8,2.67-3.8,2.06,0,2.99,1.7,3.05,3.7v.02ZM92.53,15.5c0,5.62,3.32,8.83,8.72,8.83,1.14.02,2.27-.2,3.32-.65.96-.41,1.82-1.02,2.54-1.78.71-.77,1.26-1.67,1.62-2.65.38-1.04.58-2.13.57-3.24,0-1.1-.18-2.19-.55-3.22-.35-.98-.88-1.87-1.58-2.64-.7-.77-1.56-1.38-2.51-1.8-1.05-.45-2.19-.67-3.34-.65-.9,0-1.72.13-2.43.39-.67.24-1.3.58-1.87,1V2.61h-4.49v12.89ZM104.5,14.25c.21.53.32,1.1.32,1.75s-.1,1.24-.32,1.77c-.2.51-.49.97-.87,1.37-.36.38-.8.69-1.28.89-1,.41-2.12.41-3.12,0-.47-.21-.91-.5-1.27-.87-.37-.4-.66-.86-.86-1.37-.21-.58-.31-1.19-.3-1.8-.01-1.14.41-2.25,1.17-3.1.36-.37.8-.66,1.28-.86.5-.21,1.03-.32,1.57-.32,1.64-.02,3.12,1,3.68,2.54ZM111,2.61h4.5v21.2h-4.5V2.61ZM117.82,12.81c-.41,1.02-.62,2.11-.61,3.21,0,1.1.19,2.2.6,3.22.41.98,1,1.87,1.74,2.63.75.77,1.64,1.38,2.63,1.8,1.03.42,2.16.64,3.38.64.98.02,1.96-.14,2.89-.47.83-.29,1.62-.7,2.32-1.23.65-.49,1.21-1.08,1.68-1.74.44-.62.79-1.3,1.02-2.02h-4.85c-.27.48-.66.88-1.19,1.19-.95.53-2.09.62-3.11.24-.41-.15-.8-.36-1.15-.63-.73-.6-1.26-1.41-1.5-2.33h12.19c.07-.43.1-.86.11-1.3,0-1.1-.2-2.2-.62-3.22-.8-2.01-2.38-3.6-4.38-4.42-1.08-.45-2.23-.68-3.4-.66-1.23,0-2.36.22-3.39.66-.99.41-1.89,1.02-2.65,1.78-.74.76-1.32,1.66-1.71,2.64h0ZM123.22,12.14c.68-.51,1.52-.77,2.37-.74.91,0,1.67.25,2.28.76.6.49,1.05,1.13,1.33,1.92h-7.4c.3-.8.77-1.45,1.41-1.94h.01Z"/>
  <path class="st0" d="M17.3,17.53c1.2-.95,1.2-2.8,0-3.78-1.71-1.42-3.58-2.62-5.58-3.59-1.38-.66-2.92.26-3.14,1.83-.34,2.4-.4,4.82-.18,7.12.15,1.59,1.67,2.54,3.07,1.93,2.09-.9,4.05-2.08,5.83-3.5h0ZM26.27,10.54c2.63,2.88,2.64,7.3.02,10.19-4.52,4.99-10.42,8.52-16.96,10.13-3.47.87-7.01-1.18-7.98-4.63-1.97-6.73-1.68-14.34.22-21.1C2.57,1.58,5.91-.65,9.35.17c6.37,1.52,12.35,5.43,16.92,10.37Z"/>
</svg>