<?xml version="1.0" encoding="UTF-8"?>
<svg id="Layer_1" xmlns="http://www.w3.org/2000/svg" version="1.1" viewBox="0 0 299.99 45.52">
  <!-- Generator: Adobe Illustrator 30.1.0, SVG Export Plug-In . SVG Version: 2.1.1 Build 136)  -->
  <defs>
    <style>
      .st0 {
        fill: #fff;
      }
    </style>
  </defs>
  <path class="st0" d="M78.74,9.52c-9.99,0-18.1,8.06-18.1,18s8.1,18,18.1,18c3.97,0,7.64-1.27,10.62-3.43v2.39h7.48v-16.05h-.02c.01-.3.02-.6.02-.9,0-9.94-8.1-18-18.1-18ZM78.74,38.06c-5.86,0-10.6-4.72-10.6-10.54s4.75-10.54,10.6-10.54,10.6,4.72,10.6,10.54-4.75,10.54-10.6,10.54Z"/>
  <path class="st0" d="M194.07,9.52c-9.99,0-18.1,8.06-18.1,18s8.1,18,18.1,18c3.97,0,7.64-1.27,10.62-3.43v2.39h7.48v-16.05h-.02c.01-.3.02-.6.02-.9,0-9.94-8.1-18-18.1-18ZM194.07,38.06c-5.86,0-10.6-4.72-10.6-10.54s4.74-10.54,10.6-10.54,10.6,4.72,10.6,10.54-4.74,10.54-10.6,10.54Z"/>
  <path class="st0" d="M233.73,9.52c-3.97,0-7.64,1.27-10.62,3.43V0h-7.48v44.47h7.48v-2.39c2.98,2.15,6.65,3.43,10.62,3.43,9.99,0,18.1-8.06,18.1-18s-8.1-18-18.1-18h0ZM233.73,38.06c-5.86,0-10.6-4.72-10.6-10.54s4.74-10.54,10.6-10.54,10.6,4.72,10.6,10.54-4.74,10.54-10.6,10.54Z"/>
  <path class="st0" d="M40.3,38.06c-4.54,0-8.41-2.84-9.92-6.82h27.63c.25-1.2.39-2.44.39-3.72,0-9.94-8.1-18-18.09-18s-18.09,8.06-18.09,18,8.1,18,18.09,18c7.32,0,13.62-4.32,16.47-10.54h-8.98c-1.92,1.91-4.57,3.08-7.49,3.08,0,0,0,0,0,0ZM40.3,16.98c4.54,0,8.41,2.84,9.92,6.82h-19.84c1.51-3.99,5.38-6.82,9.92-6.82h0,0Z"/>
  <path class="st0" d="M281.9,38.06c-4.54,0-8.41-2.84-9.92-6.82h27.63c.25-1.2.39-2.44.39-3.72,0-9.94-8.1-18-18.1-18s-18.1,8.06-18.1,18,8.1,18,18.1,18c7.32,0,13.62-4.32,16.47-10.54h-8.98c-1.92,1.91-4.57,3.08-7.49,3.08h0s0,0,0,0ZM281.9,16.98c4.54,0,8.41,2.84,9.92,6.82h-19.84c1.51-3.99,5.38-6.82,9.92-6.82h0Z"/>
  <path class="st0" d="M261.55,0h-7.48v44.47h7.48V0Z"/>
  <path class="st0" d="M11.16,0H3.67v4.83H0v7.44h3.67v15.26c0,9.94,8.1,18,18.09,18v-7.45c-5.85,0-10.6-4.72-10.6-10.54v-15.26h10.6v-7.44h-10.6s0-4.83,0-4.83Z"/>
  <path class="st0" d="M117.19,38.06c-5.86,0-10.6-4.72-10.6-10.54s4.75-10.54,10.6-10.54c4.54,0,8.41,2.84,9.92,6.82h7.79c-1.72-8.16-9-14.28-17.71-14.28-9.99,0-18.1,8.06-18.1,18s8.1,18,18.1,18c8.71,0,15.98-6.12,17.71-14.28h-7.79c-1.51,3.99-5.38,6.82-9.92,6.82,0,0,0,0,0,0Z"/>
  <path class="st0" d="M173.73,27.52v-.32h0c-.17-9.79-8.2-17.68-18.09-17.68-3.97,0-7.64,1.27-10.62,3.43V0h-7.48v44.47h7.48v-16.92h.02v-.04c0-5.82,4.74-10.54,10.6-10.54s10.6,4.72,10.6,10.54v.04h.02v16.92h7.48v-16.95h0s0,0,0,0Z"/>
</svg>