<?xml version="1.0" encoding="UTF-8"?>
<svg id="Layer_1" xmlns="http://www.w3.org/2000/svg" version="1.1" viewBox="0 0 91 34">
  <!-- Generator: Adobe Illustrator 30.1.0, SVG Export Plug-In . SVG Version: 2.1.1 Build 136)  -->
  <defs>
    <style>
      .st0 {
        fill: #fff;
      }
    </style>
  </defs>
  <path class="st0" d="M14.05,8.11l-7.03-4.06L0,8.11v-4.06L7.03,0l7.03,4.06v4.06h0Z"/>
  <path class="st0" d="M0,11.52h3.68v8.94c0,2.31,1.73,3.44,3.35,3.44s3.35-1.16,3.35-3.47v-8.91h3.68v9.15c0,2.13-.67,3.77-2.01,4.9-1.34,1.12-3.01,1.67-5.05,1.67s-3.71-.55-5.02-1.67c-1.31-1.12-1.98-2.71-1.98-4.81v-9.25ZM45.87,22.63c-1.11.99-2.38,1.48-3.83,1.48-2.64,0-4.41-1.5-4.61-3.83h11.89s.08-.75.08-1.46c0-2.19-.7-4.01-2.13-5.51-1.4-1.49-3.22-2.22-5.44-2.22-2.34,0-4.26.73-5.78,2.22-1.49,1.49-2.25,3.44-2.25,5.87v.12c0,2.4.76,4.32,2.25,5.75,1.49,1.43,3.47,2.16,5.87,2.16,2.79,0,5.02-1.1,6.69-3,0,0-2.73-1.58-2.73-1.58ZM38.87,15.17c.82-.64,1.83-.97,2.95-.97,1.06,0,1.95.33,2.71,1,.73.61,1.12,1.36,1.15,2.22h-8.16c.12-.89.57-1.64,1.35-2.25h0ZM82.91,29.28c-1.49,3.52-3.06,4.72-5.45,4.72h-1.66v-3.26h1.34c.82,0,1.59-.31,2.32-1.99l.73-1.69-6.3-15.54h3.74l4.47,11.19,4.59-11.19h3.74l-7.53,17.76h0ZM28.38,5.65v7.26c-1.21-1.08-3.08-1.72-4.9-1.72-2.16,0-3.98.76-5.47,2.31-1.46,1.52-2.19,3.41-2.19,5.69s.73,4.17,2.19,5.72c1.49,1.52,3.32,2.28,5.47,2.28,2.49,0,4.06-.98,4.9-1.75v1.41h3.65V5.65h-3.65ZM27.28,22.53c-.88.88-2.01,1.34-3.32,1.34s-2.37-.46-3.25-1.34c-.85-.88-1.28-2.01-1.28-3.34s.43-2.46,1.28-3.35c.88-.88,1.95-1.34,3.25-1.34s2.43.46,3.32,1.34c.91.88,1.37,2.01,1.37,3.35s-.46,2.46-1.37,3.34ZM68.22,11.21c-2.77,0-4.21,1.15-5.2,2.26-.4-.75-1.51-2.26-4.1-2.26-2.2,0-3.49,1.11-4.14,1.9v-1.59h-3.62v15.33h3.62v-8.82c0-2.07,1.28-3.56,2.98-3.56s2.74,1.31,2.74,3.41v8.97h3.62v-8.82c0-2.1,1.25-3.56,3.04-3.56s2.74,1.31,2.74,3.41v8.97h3.65v-9.49c0-4-2.15-6.14-5.32-6.14h0Z"/>
</svg>