<?xml version="1.0" encoding="UTF-8"?>
<svg id="Layer_1" xmlns="http://www.w3.org/2000/svg" version="1.1" viewBox="0 0 109.85 31.06">
  <!-- Generator: Adobe Illustrator 30.3.0, SVG Export Plug-In . SVG Version: 2.1.3 Build 182)  -->
  <defs>
    <style>
      .st0 {
        fill: #fff;
      }
    </style>
  </defs>
  <path class="st0" d="M30.01,6.81c1.36,0,2.54-.48,3.53-1.43.88-.84,1.34-1.72,1.38-2.64.04-.62-.2-1.23-.72-1.84C33.69.3,33.05,0,32.27,0,30.95,0,29.75.44,28.66,1.32c-1.08.88-1.65,1.79-1.68,2.75-.07,1.83.94,2.74,3.04,2.74Z"/>
  <path class="st0" d="M108.14,12.5c-1.33-1.73-3.28-2.59-5.85-2.59-4.01,0-7.34,1.47-9.99,4.41-2.47,2.64-3.61,5.55-3.42,8.71.01.23.05.44.08.67-.15.06-.28.13-.43.2-3.13,1.35-6.01,2.02-8.66,2.02-1.33,0-2.32-.46-2.98-1.38,3.57-.59,6.53-1.96,8.88-4.13,2.21-1.98,3.24-3.91,3.09-5.78-.22-2.93-2.13-4.4-5.74-4.4-3.9,0-7.28,1.47-10.15,4.41-2.61,2.69-3.94,5.52-3.97,8.5,0,.49.02.97.08,1.43-.61.4-1.09.63-1.4.63-.7,0-1.14-.15-1.32-.44-.18-.29-.26-.82-.22-1.59,0-.29.23-1.42.69-3.38.46-1.96.71-3.45.75-4.48.07-1.5-.22-2.66-.88-3.46-.77-.99-2.04-1.41-3.81-1.26-1.47.11-2.89.66-4.25,1.66-.81.59-1.64,1.38-2.48,2.37-.3.26-.57.5-.83.72.04-1.51-.26-2.67-.88-3.48-.77-.99-2.06-1.42-3.86-1.27-2.1.18-3.99,1.01-5.68,2.48-.74.63-1.38,1.36-1.93,2.21.08-.33.11-.68.11-1.05,0-1.14-.3-2.14-.88-3.01-.59-.86-1.36-1.26-2.32-1.18-.55.04-1.6.77-3.14,2.21-2.13,1.99-3.29,3.05-3.48,3.2l1.32,1.49c1.03-.74,1.66-1.12,1.88-1.12.4,0,.58.33.5.99-.03.95-.2,2.28-.51,3.99-.19,1.06-.32,1.96-.41,2.73-.02.01-.03.03-.05.04-1.32,1.09-2.24,1.63-2.76,1.63-1.18,0-1.75-.79-1.71-2.36.55-3.44,1.07-6.28,1.55-8.52.15-1.32-.07-2.39-.64-3.22-.57-.82-1.46-1.18-2.67-1.07-.77.07-1.95.81-3.53,2.21-.55.5-1.1,1-1.65,1.5-.11-2.6-1.29-3.95-3.56-4.01-3.41-.11-5.71,1.81-6.92,5.77.62-.27,1.23-.4,1.82-.4,1.25,0,1.8.7,1.65,2.11-.07.85-.63,2.09-1.65,3.71-1.03,1.62-1.8,2.44-2.32,2.44-.66,0-1.27-1.25-1.82-3.76-.18-.73-.52-2.61-.99-5.63-.44-2.8-1.62-4.11-3.53-3.92-.81.07-2.02.81-3.64,2.21-1.18,1.07-2.37,2.13-3.58,3.2l1.15,1.49c1.1-.77,1.75-1.16,1.93-1.16.84,0,1.63,1.32,2.37,3.97.66,2.43,1.32,4.85,1.98,7.27.99,2.65,2.2,3.97,3.63,3.97,2.31,0,5.14-2.17,8.48-6.52,2.35-3.02,3.86-5.57,4.56-7.66.93-.68,1.51-1.04,1.72-1.04.66,0,.99.48.99,1.43,0,.18-.36,1.54-1.08,4.08-.72,2.54-1.09,4.41-1.13,5.62-.04,1.18.25,2.13.85,2.87.61.74,1.48,1.1,2.62,1.1,2.46,0,4.93-1.07,7.39-3.2.23-.2.43-.41.65-.62.19.83.52,1.53,1.01,2.06,1.06,1.14,2.85,1.67,5.38,1.6-.33-.81-.47-2.24-.4-4.3.11-2.28.7-4.47,1.77-6.56,1.07-2.1,2.06-3.15,2.98-3.15,1.07,0,1.57.68,1.49,2.04-.04.92-.22,1.97-.54,3.15-.33,1.18-.51,2.35-.54,3.53-.07,1.88.35,3.22,1.27,4.03,1.03.92,2.82,1.34,5.39,1.27-.38-.85-.54-2.06-.46-3.64.11-2.24.87-4.56,2.27-6.95,1.33-2.28,2.47-3.42,3.43-3.42.89,0,1.31.7,1.27,2.09-.04.92-.27,2.21-.69,3.86-.42,1.65-.65,3.07-.69,4.24-.07,2.65,1.08,3.97,3.48,3.97s4.93-1.07,7.39-3.2c.05-.04.09-.09.13-.13.09.15.16.31.25.45,1.29,1.99,3.42,2.98,6.4,2.98,4.01,0,7.96-1.12,11.86-3.36.44-.25.86-.5,1.26-.75.25.5.52.97.86,1.4,1.51,1.87,3.71,2.81,6.62,2.81,3.49,0,6.42-1.23,8.77-3.69,2.35-2.46,3.6-5.38,3.75-8.76.11-2.5-.46-4.53-1.71-6.11ZM76.01,22.42c-.02-.48-.02-.71,0-.71.04-1.39.62-2.85,1.76-4.36,1.14-1.52,2.26-2.28,3.36-2.28.84,0,1.25.49,1.21,1.48-.04.73-.59,1.68-1.65,2.85-1.32,1.36-2.88,2.36-4.68,3.02ZM102.01,23.49c-1.18,1.95-2.59,2.93-4.25,2.93-.74,0-1.31-.4-1.71-1.22-.37-.7-.53-1.51-.5-2.43.07-1.88.62-3.65,1.66-5.31,1.21-2.03,2.76-3.04,4.63-3.04.59,0,1.04.42,1.35,1.25.31.83.45,1.74.41,2.74-.07,1.77-.61,3.46-1.6,5.09Z"/>
</svg>