<?xml version="1.0" encoding="UTF-8"?>
<svg id="Layer_1" xmlns="http://www.w3.org/2000/svg" version="1.1" viewBox="0 0 28.57 20">
  <!-- Generator: Adobe Illustrator 30.3.0, SVG Export Plug-In . SVG Version: 2.1.3 Build 182)  -->
  <defs>
    <style>
      .st0 {
        fill: #fff;
      }

      .st1 {
        fill: red;
      }
    </style>
  </defs>
  <path class="st1" d="M27.97,3.12c-.33-1.23-1.3-2.2-2.53-2.53C23.22,0,14.28,0,14.28,0c0,0-8.93,0-11.16.6C1.89.93.93,1.89.6,3.12,0,5.35,0,10,0,10c0,0,0,4.65.6,6.88.33,1.23,1.3,2.2,2.53,2.53,2.23.6,11.16.6,11.16.6,0,0,8.93,0,11.16-.6,1.23-.33,2.2-1.3,2.53-2.53.6-2.23.6-6.88.6-6.88,0,0,0-4.65-.6-6.88Z"/>
  <path class="st0" d="M11.43,14.29l7.42-4.29-7.42-4.29v8.57Z"/>
</svg>