<?xml version="1.0" encoding="UTF-8"?>
<svg id="Layer_1" xmlns="http://www.w3.org/2000/svg" version="1.1" viewBox="0 0 24 24">
  <!-- Generator: Adobe Illustrator 30.1.0, SVG Export Plug-In . SVG Version: 2.1.1 Build 136)  -->
  <defs>
    <style>
      .st0 {
        fill: none;
        stroke: #fff;
        stroke-linecap: round;
        stroke-linejoin: round;
        stroke-width: 1.5px;
      }
    </style>
  </defs>
  <path class="st0" d="M11.35,3.84c-.06.21-.1.43-.1.66,0,.41.34.75.75.75h4.5c.41,0,.75-.34.75-.75,0-.23-.03-.45-.1-.66M11.35,3.84c.29-.94,1.16-1.59,2.15-1.59h1.5c1.01,0,1.87.67,2.15,1.59M11.35,3.84c-.38.02-.75.05-1.12.08-1.13.09-1.98,1.06-1.98,2.19v2.14M17.15,3.84c.38.02.75.05,1.12.08,1.13.09,1.98,1.06,1.98,2.19v10.39c0,1.24-1.01,2.25-2.25,2.25h-2.25M8.25,8.25h-3.38c-.62,0-1.12.5-1.12,1.12v11.25c0,.62.5,1.12,1.12,1.12h9.75c.62,0,1.12-.5,1.12-1.12v-1.88M8.25,8.25h6.38c.62,0,1.12.5,1.12,1.12v9.38M7.5,15.75l1.5,1.5,3-3.75"/>
</svg>