<?xml version="1.0" encoding="UTF-8"?>
<svg id="Layer_1" xmlns="http://www.w3.org/2000/svg" version="1.1" viewBox="0 0 500 69.88">
  <!-- Generator: Adobe Illustrator 30.1.0, SVG Export Plug-In . SVG Version: 2.1.1 Build 136)  -->
  <defs>
    <style>
      .st0 {
        fill: #fff;
      }
    </style>
  </defs>
  <path class="st0" d="M67.91,34.87C67.91,15.57,83.84,0,103.77,0s35.99,15.57,35.99,34.88-15.92,35.01-35.99,35.01-35.86-15.97-35.86-35.01ZM122.64,34.87c0-9.58-8.43-18.1-18.87-18.1s-18.6,8.52-18.6,18.1,8.43,18.24,18.6,18.24,18.87-8.52,18.87-18.24Z"/>
  <path class="st0" d="M428.15,35.41C428.15,14.24,445.48,0,461.19,0c10.75,0,16.92,3.19,21.09,9.45l1.61-8.25h16.12v67.35h-16.12l-2.02-6.92c-4.7,5.06-10.61,8.25-20.55,8.25-15.71,0-33.17-13.58-33.17-34.48h0ZM482.95,35.27c0-10.25-8.46-18.5-18.94-18.5s-18.67,8.39-18.67,18.77c0,9.32,8.46,17.7,18.67,17.7,10.61-.13,18.94-8.52,18.94-17.97h0Z"/>
  <path class="st0" d="M408.83,9.42V1.7h-17.1v66.21h17.1v-35.72c0-10.73,5.22-16.36,14.49-16.36.65,0,1.18,0,1.7.13L428.15,0c-8.88.13-15.27,3.14-19.32,9.42h0Z"/>
  <path class="st0" d="M234.16,9.42V1.7h-17.62l.14,66.21h17.62l-.14-35.72c0-10.73,5.38-16.36,14.8-16.36.67,0,1.21,0,1.75.13L253.94,0c-9.15.13-15.74,3.14-19.78,9.42h0Z"/>
  <path class="st0" d="M146.65,42.22V.98h17.21v39.1c0,8.64,4.73,13.7,13.01,13.7,9.2,0,14.58-5.72,14.58-16.62V.98h17.21v67.3h-17.21v-7.85c-4.07,6.38-10.64,9.44-19.71,9.44-15.5.13-25.09-11.17-25.09-27.66h0Z"/>
  <path class="st0" d="M315.95,34.81C315.95,15.94,329.57-.13,350.93,0c19.89,0,33.91,15.94,33.91,34.54,0,1.86-.13,3.85-.4,5.58l-51.4-.13c2,8.1,8.68,13.82,18.69,13.95,6.14,0,12.68-2.26,16.69-7.31l11.89,9.57c-6.14,8.63-16.96,13.68-28.44,13.68-20.3-.27-35.92-15.41-35.92-35.07h0ZM367.35,27.9c-.94-6.78-8.14-12.09-16.42-12.09s-14.69,4.78-17.23,11.96l33.65.13Z"/>
  <path class="st0" d="M253.94,54l15.52-8.07c2.54,5.56,7.76,8.73,14.98,8.73,6.69,0,9.23-2.12,9.23-5.03,0-10.72-36.93-4.23-36.93-28.85C256.75,7.15,268.79,0,283.64,0c11.24,0,21.27,4.9,26.76,14.16l-15.39,8.07c-2.27-4.5-6.55-7.02-12.04-7.02s-7.89,1.85-7.89,4.9c0,10.46,36.93,3.84,36.93,28.85,0,12.97-10.7,20.91-27.97,20.91-14.72-.13-25.02-4.9-30.11-15.88h0Z"/>
  <path class="st0" d="M0,34.51C0,15.35,15.79,0,35.56,0,48.3,0,59.31,6.3,65.68,15.75l-14.86,8.53c-3.45-4.72-8.89-7.87-15.26-7.87-10.22,0-18.44,8.4-18.44,17.98s8.36,17.98,18.44,17.98c6.63,0,12.47-3.41,15.66-8.53l14.73,8.66c-6.24,9.84-17.51,16.41-30.39,16.41C15.79,69.03,0,53.28,0,34.51h0Z"/>
</svg>