<?xml version="1.0" encoding="UTF-8"?>
<svg id="Layer_1" xmlns="http://www.w3.org/2000/svg" version="1.1" viewBox="0 0 31.22 31.22">
  <!-- Generator: Adobe Illustrator 30.1.0, SVG Export Plug-In . SVG Version: 2.1.1 Build 136)  -->
  <defs>
    <style>
      .st0 {
        fill: #ff7b7b;
      }
    </style>
  </defs>
  <path class="st0" d="M17.76,15.61l3.58-3.58c.69-.69.51-1.62,0-2.14-.52-.52-1.45-.7-2.14,0l-3.58,3.58-3.58-3.58c-.69-.69-1.62-.51-2.14,0-.52.52-.7,1.45,0,2.14l3.58,3.58-3.58,3.58c-.32.32-.48.73-.45,1.15.02.37.19.72.46,1,.52.52,1.45.7,2.14,0l3.58-3.58,3.58,3.58c.32.32.69.45,1.05.45.42,0,.81-.18,1.1-.46s.44-.63.46-1c.03-.42-.13-.83-.45-1.15l-3.58-3.58Z"/>
  <path class="st0" d="M15.61.11C7.06.11.11,7.06.11,15.61s6.95,15.5,15.5,15.5,15.5-6.95,15.5-15.5S24.16.11,15.61.11ZM28.07,15.61c0,3.33-1.3,6.46-3.65,8.81-2.35,2.35-5.48,3.65-8.81,3.65s-6.46-1.3-8.81-3.65c-2.35-2.35-3.65-5.48-3.65-8.81s1.3-6.46,3.65-8.81c2.35-2.35,5.48-3.65,8.81-3.65s6.46,1.3,8.81,3.65c2.35,2.35,3.65,5.48,3.65,8.81Z"/>
</svg>