<?xml version="1.0" encoding="UTF-8"?>
<svg id="Layer_1" xmlns="http://www.w3.org/2000/svg" version="1.1" viewBox="0 0 24 24">
  <!-- Generator: Adobe Illustrator 30.1.0, SVG Export Plug-In . SVG Version: 2.1.1 Build 136)  -->
  <defs>
    <style>
      .st0 {
        fill: none;
        stroke: #ffff78;
        stroke-linecap: round;
        stroke-linejoin: round;
        stroke-width: 1.5px;
      }
    </style>
  </defs>
  <path class="st0" d="M3.98,8.22c-.94,1.1-1.63,2.39-2.05,3.78,1.29,4.34,5.31,7.5,10.07,7.5.99,0,1.95-.14,2.86-.4M6.23,6.23c1.71-1.13,3.72-1.73,5.77-1.73,4.76,0,8.77,3.16,10.06,7.5-.71,2.37-2.23,4.41-4.29,5.77M6.23,6.23l-3.23-3.23M6.23,6.23l3.65,3.65M17.77,17.77l3.23,3.23M17.77,17.77l-3.65-3.65M14.12,14.12c1.17-1.17,1.17-3.07,0-4.24s-3.07-1.17-4.24,0M14.12,14.12l-4.24-4.24"/>
</svg>