<?xml version="1.0" encoding="UTF-8"?>
<svg id="Layer_1" xmlns="http://www.w3.org/2000/svg" version="1.1" viewBox="0 0 100 100">
  <!-- Generator: Adobe Illustrator 30.1.0, SVG Export Plug-In . SVG Version: 2.1.1 Build 136)  -->
  <defs>
    <style>
      .st0 {
        fill: #fff;
        fill-rule: evenodd;
      }
    </style>
  </defs>
  <path class="st0" d="M63.49.23L8.16,4.31c-4.46.39-6.02,3.3-6.02,6.8v60.66c0,2.72.97,5.05,3.3,8.17l13.01,16.91c2.14,2.72,4.08,3.31,8.16,3.11l64.26-3.89c5.43-.39,6.99-2.92,6.99-7.19V20.64c0-2.21-.87-2.85-3.44-4.73l-18.1-12.76C72.04.04,70.29-.36,63.49.23h0ZM28.06,19.52c-5.25.35-6.44.43-9.42-1.99l-7.58-6.03c-.77-.78-.38-1.75,1.56-1.95l53.19-3.89c4.47-.39,6.79,1.17,8.54,2.53l9.12,6.61c.39.2,1.36,1.36.19,1.36l-54.93,3.31-.68.05h0ZM21.95,88.3V30.37c0-2.53.78-3.7,3.1-3.89l63.09-3.69c2.14-.19,3.11,1.17,3.11,3.69v57.55c0,2.53-.39,4.67-3.88,4.86l-60.38,3.5c-3.49.19-5.04-.97-5.04-4.08h0ZM81.55,33.47c.39,1.75,0,3.5-1.75,3.7l-2.91.58v42.77c-2.53,1.36-4.85,2.14-6.8,2.14-3.11,0-3.88-.97-6.21-3.89l-19.03-29.94v28.97l6.02,1.36s0,3.5-4.86,3.5l-13.39.78c-.39-.78,0-2.72,1.36-3.11l3.5-.97v-38.3l-4.85-.39c-.39-1.75.58-4.28,3.3-4.47l14.37-.97,19.8,30.33v-26.83l-5.05-.58c-.39-2.14,1.16-3.7,3.1-3.89l13.4-.78h0Z"/>
</svg>