<?xml version="1.0" encoding="UTF-8"?>
<svg id="Layer_1" xmlns="http://www.w3.org/2000/svg" version="1.1" viewBox="0 0 96 96">
  <!-- Generator: Adobe Illustrator 30.1.0, SVG Export Plug-In . SVG Version: 2.1.1 Build 136)  -->
  <defs>
    <style>
      .st0 {
        fill: #fff;
      }
    </style>
  </defs>
  <path class="st0" d="M63.12,69.64c-2.21,0-4-1.79-4-4v-22.68c0-.06,0-.12,0-.19h0s.04-3.24-2.24-5.57c-1.84-1.89-4.83-2.84-8.89-2.84s-7.04.96-8.89,2.84c-2.28,2.34-2.24,5.58-2.23,5.61,0,.03,0,.11,0,.14v22.68c0,2.21-1.79,4-4,4s-4-1.79-4-4v-22.61c-.03-1.07.03-6.72,4.38-11.29,3.41-3.57,8.36-5.38,14.73-5.38s11.33,1.81,14.73,5.38c4.35,4.56,4.42,10.21,4.38,11.29v22.61c0,2.21-1.79,4-4,4Z"/>
  <path class="st0" d="M84.67,96H11.33c-6.25,0-11.33-5.08-11.33-11.33V11.33C0,5.08,5.08,0,11.33,0h73.33c6.25,0,11.33,5.08,11.33,11.33v73.33c0,6.25-5.08,11.33-11.33,11.33ZM11.33,8c-1.84,0-3.33,1.5-3.33,3.33v73.33c0,1.84,1.5,3.33,3.33,3.33h73.33c1.84,0,3.33-1.5,3.33-3.33V11.33c0-1.84-1.5-3.33-3.33-3.33H11.33Z"/>
</svg>