<?xml version="1.0" encoding="UTF-8"?>
<svg id="Layer_1" xmlns="http://www.w3.org/2000/svg" version="1.1" viewBox="0 0 46.9 53.59">
  <!-- Generator: Adobe Illustrator 30.1.0, SVG Export Plug-In . SVG Version: 2.1.1 Build 136)  -->
  <defs>
    <style>
      .st0 {
        fill: #fff;
      }
    </style>
  </defs>
  <path class="st0" d="M24.66,53.28c-.77.44-1.62.39-2.32-.02l-5.71-3.32c-.43-.25-.89-.95-.89-1.53v-25.07c.04-.6.37-1.29.83-1.56l6.88-4.01-6.98-4.07c-.37-.22-.74-.94-.83-1.39v-7.1c.01-.53.44-1.3.89-1.57L22.27.34c.77-.45,1.56-.46,2.37,0l21.28,12.29c.58.33.98,1.07.98,1.68v6.95c0,.58-.53,1.33-1.03,1.62l-5.81,3.35c-.44.25-1.31.32-1.76.07l-6.92-3.93-.09,26.05c0,.51-.43,1.26-.81,1.48l-5.81,3.37h-.01Z"/>
  <path class="st0" d="M8.87,26.24c-.63.37-1.51.32-2.06,0l-5.95-3.44C.47,22.58.11,21.86,0,21.39v-7.12c0-.55.51-1.3.97-1.57l5.92-3.43c.43-.25,1.38-.29,1.81-.04l6.08,3.51c.43.25.9,1.02.9,1.54v6.85c0,.65-.41,1.41-.95,1.72l-5.87,3.4h0Z"/>
</svg>